{
	"asset":{
		"version":"2.0",
		"generator":"Houdini GLTF 2.0 Exporter"
	},
	"accessors":[
		{
			"bufferView":0,
			"componentType":5123,
			"count":2166,
			"type":"SCALAR",
			"min":[0
			],
			"max":[399
			]
		},
		{
			"bufferView":1,
			"componentType":5126,
			"count":400,
			"type":"VEC3",
			"min":[-100,0,-100
			],
			"max":[100,0,100
			]
		},
		{
			"bufferView":2,
			"componentType":5126,
			"count":400,
			"type":"VEC4",
			"min":[1,0,0,1
			],
			"max":[1,0,0,1
			]
		},
		{
			"bufferView":3,
			"componentType":5126,
			"count":400,
			"type":"VEC3",
			"min":[0,1,0
			],
			"max":[0,1,0
			]
		},
		{
			"bufferView":4,
			"componentType":5126,
			"count":400,
			"type":"VEC2",
			"min":[-0.5,-0.5
			],
			"max":[1.5,1.5
			]
		}
	],
	"buffers":[
		{
			"uri":"grid_data.bin",
			"byteLength":23532,
			"name":"main_buffer"
		}
	],
	"bufferViews":[
		{
			"buffer":0,
			"byteLength":4332,
			"target":34963
		},
		{
			"buffer":0,
			"byteOffset":4332,
			"byteLength":4800,
			"target":34962
		},
		{
			"buffer":0,
			"byteOffset":9132,
			"byteLength":6400,
			"target":34962
		},
		{
			"buffer":0,
			"byteOffset":15532,
			"byteLength":4800,
			"target":34962
		},
		{
			"buffer":0,
			"byteOffset":20332,
			"byteLength":3200,
			"target":34962
		}
	],
	"nodes":[
		{
			"name":"geo1",
			"mesh":0
		}
	],
	"meshes":[
		{
			"primitives":[
				{
					"attributes":{
						"TEXCOORD_0":4,
						"TANGENT":2,
						"POSITION":1,
						"NORMAL":3
					},
					"indices":0
				}
			],
			"name":"polyframe1"
		}
	],
	"scenes":[
		{
			"nodes":[0
			]
		}
	],
	"scene":0
}
