{
	"asset":{
		"version":"2.0",
		"generator":"Houdini GLTF 2.0 Exporter"
	},
	"accessors":[
		{
			"bufferView":0,
			"componentType":5125,
			"count":55506,
			"type":"SCALAR",
			"min":[0
			],
			"max":[10386
			]
		},
		{
			"bufferView":1,
			"componentType":5126,
			"count":10387,
			"type":"VEC3",
			"min":[-211.778732,-1.92550302,-160.754272
			],
			"max":[209.123077,36.6732674,164.07634
			]
		},
		{
			"bufferView":2,
			"componentType":5126,
			"count":10387,
			"type":"VEC4",
			"min":[-0.999950767,-0.998825192,-0.999997437,1
			],
			"max":[0.999998629,0.999609828,0.999628305,1
			]
		},
		{
			"bufferView":3,
			"componentType":5126,
			"count":10387,
			"type":"VEC3",
			"min":[-0.999658585,-0.885698676,-0.999763191
			],
			"max":[0.999269426,0.999997914,0.997100592
			]
		},
		{
			"bufferView":4,
			"componentType":5126,
			"count":10387,
			"type":"VEC2",
			"min":[0.00195299997,0.00195300579
			],
			"max":[0.997282982,0.998046994
			]
		}
	],
	"buffers":[
		{
			"uri":"ground_data.bin",
			"byteLength":720600,
			"name":"main_buffer"
		}
	],
	"bufferViews":[
		{
			"buffer":0,
			"byteLength":222024,
			"target":34963
		},
		{
			"buffer":0,
			"byteOffset":222024,
			"byteLength":124644,
			"target":34962
		},
		{
			"buffer":0,
			"byteOffset":346668,
			"byteLength":166192,
			"target":34962
		},
		{
			"buffer":0,
			"byteOffset":512860,
			"byteLength":124644,
			"target":34962
		},
		{
			"buffer":0,
			"byteOffset":637504,
			"byteLength":83096,
			"target":34962
		}
	],
	"nodes":[
		{
			"name":"geo1",
			"mesh":0
		}
	],
	"meshes":[
		{
			"primitives":[
				{
					"attributes":{
						"TEXCOORD_0":4,
						"TANGENT":2,
						"POSITION":1,
						"NORMAL":3
					},
					"indices":0,
					"material":0
				}
			],
			"name":"polyframe1"
		}
	],
	"materials":[
		{
			"name":"initialShadingGroup",
			"pbrMetallicRoughness":{
				"baseColorFactor":[0.75686276,0.75686276,0.75686276,1
				],
				"metallicFactor":0
			}
		}
	],
	"scenes":[
		{
			"nodes":[0
			]
		}
	],
	"scene":0
}
