{
	"asset":{
		"version":"2.0",
		"generator":"Houdini GLTF 2.0 Exporter"
	},
	"accessors":[
		{
			"bufferView":0,
			"componentType":5125,
			"count":58806,
			"type":"SCALAR",
			"min":[0
			],
			"max":[9999
			]
		},
		{
			"bufferView":1,
			"componentType":5126,
			"count":10000,
			"type":"VEC3",
			"min":[-50,-1.59129202,-50
			],
			"max":[49.9999924,1.74700546,49.9999924
			]
		},
		{
			"bufferView":2,
			"componentType":5126,
			"count":10000,
			"type":"VEC3",
			"min":[-0.497892976,0.783424437,-0.482455879
			],
			"max":[0.559419096,0.99999845,0.589226186
			]
		},
		{
			"bufferView":3,
			"componentType":5126,
			"count":10000,
			"type":"VEC4",
			"min":[0.85027504,-0.526338041,-0.0300137326,1
			],
			"max":[0.99999994,0.516208351,0.0232900772,1
			]
		},
		{
			"bufferView":4,
			"componentType":5126,
			"count":10000,
			"type":"VEC2",
			"min":[-2.5,-6.49999905
			],
			"max":[7.49999905,3.5
			]
		}
	],
	"buffers":[
		{
			"uri":"grid_data.bin",
			"byteLength":715224,
			"name":"main_buffer"
		}
	],
	"bufferViews":[
		{
			"buffer":0,
			"byteLength":235224,
			"target":34963
		},
		{
			"buffer":0,
			"byteOffset":235224,
			"byteLength":120000,
			"target":34962
		},
		{
			"buffer":0,
			"byteOffset":355224,
			"byteLength":120000,
			"target":34962
		},
		{
			"buffer":0,
			"byteOffset":475224,
			"byteLength":160000,
			"target":34962
		},
		{
			"buffer":0,
			"byteOffset":635224,
			"byteLength":80000,
			"target":34962
		}
	],
	"nodes":[
		{
			"name":"geo1",
			"mesh":0
		}
	],
	"meshes":[
		{
			"primitives":[
				{
					"attributes":{
						"TEXCOORD_0":4,
						"TANGENT":3,
						"POSITION":1,
						"NORMAL":2
					},
					"indices":0
				}
			],
			"name":"mountain1"
		}
	],
	"scenes":[
		{
			"nodes":[0
			]
		}
	],
	"scene":0
}
