{
	"asset":{
		"version":"2.0",
		"generator":"Houdini GLTF 2.0 Exporter"
	},
	"accessors":[
		{
			"bufferView":0,
			"componentType":5125,
			"count":36603,
			"type":"SCALAR",
			"min":[0
			],
			"max":[33877
			]
		},
		{
			"bufferView":1,
			"componentType":5126,
			"count":33878,
			"type":"VEC3",
			"min":[-8.16238117,2.70389462,-7.5006566
			],
			"max":[8.88592911,15.3171539,9.2748642
			]
		},
		{
			"bufferView":2,
			"componentType":5126,
			"count":33878,
			"type":"VEC4",
			"min":[-0.999924302,-0.999846816,-0.999972105,1
			],
			"max":[0.99996984,0.99968493,0.999898374,1
			]
		},
		{
			"bufferView":3,
			"componentType":5126,
			"count":33878,
			"type":"VEC3",
			"min":[0,5.04553536e-05,0
			],
			"max":[1,0.999594212,1
			]
		},
		{
			"bufferView":4,
			"componentType":5126,
			"count":33878,
			"type":"VEC2",
			"min":[0,0
			],
			"max":[0.994237602,0.996373177
			]
		},
		{
			"bufferView":5,
			"componentType":5126,
			"count":33878,
			"type":"VEC3",
			"min":[-0.999513686,-0.999775589,-0.999982297
			],
			"max":[0.99850291,0.999891698,0.998463392
			]
		},
		{
			"bufferView":6,
			"componentType":5126,
			"count":33878,
			"type":"SCALAR",
			"min":[0
			],
			"max":[0.965517223
			]
		},
		{
			"bufferView":7,
			"componentType":5125,
			"count":33878,
			"type":"SCALAR",
			"min":[1
			],
			"max":[1
			]
		},
		{
			"bufferView":8,
			"componentType":5125,
			"count":33878,
			"type":"SCALAR",
			"min":[1
			],
			"max":[1
			]
		},
		{
			"bufferView":9,
			"componentType":5125,
			"count":33878,
			"type":"SCALAR",
			"min":[1024
			],
			"max":[1024
			]
		}
	],
	"buffers":[
		{
			"uri":"leaves_data.bin",
			"byteLength":2721140,
			"name":"main_buffer"
		}
	],
	"bufferViews":[
		{
			"buffer":0,
			"byteLength":146412,
			"target":34963
		},
		{
			"buffer":0,
			"byteOffset":146412,
			"byteLength":406536,
			"target":34962
		},
		{
			"buffer":0,
			"byteOffset":552948,
			"byteLength":542048,
			"target":34962
		},
		{
			"buffer":0,
			"byteOffset":1094996,
			"byteLength":406536,
			"target":34962
		},
		{
			"buffer":0,
			"byteOffset":1501532,
			"byteLength":271024,
			"target":34962
		},
		{
			"buffer":0,
			"byteOffset":1772556,
			"byteLength":406536,
			"target":34962
		},
		{
			"buffer":0,
			"byteOffset":2179092,
			"byteLength":135512,
			"target":34962
		},
		{
			"buffer":0,
			"byteOffset":2314604,
			"byteLength":135512,
			"target":34962
		},
		{
			"buffer":0,
			"byteOffset":2450116,
			"byteLength":135512,
			"target":34962
		},
		{
			"buffer":0,
			"byteOffset":2585628,
			"byteLength":135512,
			"target":34962
		}
	],
	"nodes":[
		{
			"name":"geo1",
			"mesh":0
		}
	],
	"meshes":[
		{
			"primitives":[
				{
					"attributes":{
						"_index":7,
						"_unreal_lightmap_resolution":9,
						"TEXCOORD_0":4,
						"COLOR_0":3,
						"TANGENT":2,
						"POSITION":1,
						"_unreal_face_smoothing_mask":8,
						"_Alpha":6,
						"NORMAL":5
					},
					"indices":0
				}
			],
			"name":"leaves"
		}
	],
	"scenes":[
		{
			"nodes":[0
			]
		}
	],
	"scene":0
}
