{
	"asset":{
		"version":"2.0",
		"generator":"Houdini GLTF 2.0 Exporter"
	},
	"accessors":[
		{
			"bufferView":0,
			"componentType":5125,
			"count":146412,
			"type":"SCALAR",
			"min":[0
			],
			"max":[135127
			]
		},
		{
			"bufferView":1,
			"componentType":5126,
			"count":135128,
			"type":"VEC3",
			"min":[-19.2934341,1.07299972,-18.2640514
			],
			"max":[18.445713,15.0758705,24.349514
			]
		},
		{
			"bufferView":2,
			"componentType":5126,
			"count":135128,
			"type":"VEC4",
			"min":[-0.999924302,-0.999846816,-0.999972105,1
			],
			"max":[0.99996984,0.99968493,0.999898374,1
			]
		},
		{
			"bufferView":3,
			"componentType":5125,
			"count":135128,
			"type":"SCALAR",
			"min":[1
			],
			"max":[1
			]
		},
		{
			"bufferView":4,
			"componentType":5126,
			"count":135128,
			"type":"VEC3",
			"min":[0,5.04553536e-05,0
			],
			"max":[1,0.999594212,1
			]
		},
		{
			"bufferView":5,
			"componentType":5126,
			"count":135128,
			"type":"VEC2",
			"min":[0,0
			],
			"max":[0.994237602,0.996373177
			]
		},
		{
			"bufferView":6,
			"componentType":5125,
			"count":135128,
			"type":"SCALAR",
			"min":[1
			],
			"max":[1
			]
		},
		{
			"bufferView":7,
			"componentType":5126,
			"count":135128,
			"type":"VEC3",
			"min":[-0.999852598,-0.99996841,-0.999857962
			],
			"max":[0.999404013,0.998780727,0.999865472
			]
		},
		{
			"bufferView":8,
			"componentType":5125,
			"count":135128,
			"type":"SCALAR",
			"min":[1024
			],
			"max":[1024
			]
		},
		{
			"bufferView":9,
			"componentType":5126,
			"count":135128,
			"type":"SCALAR",
			"min":[0
			],
			"max":[0.965517223
			]
		}
	],
	"buffers":[
		{
			"uri":"leaves_cluster_data.bin",
			"byteLength":10855376,
			"name":"main_buffer"
		}
	],
	"bufferViews":[
		{
			"buffer":0,
			"byteLength":585648,
			"target":34963
		},
		{
			"buffer":0,
			"byteOffset":585648,
			"byteLength":1621536,
			"target":34962
		},
		{
			"buffer":0,
			"byteOffset":2207184,
			"byteLength":2162048,
			"target":34962
		},
		{
			"buffer":0,
			"byteOffset":4369232,
			"byteLength":540512,
			"target":34962
		},
		{
			"buffer":0,
			"byteOffset":4909744,
			"byteLength":1621536,
			"target":34962
		},
		{
			"buffer":0,
			"byteOffset":6531280,
			"byteLength":1081024,
			"target":34962
		},
		{
			"buffer":0,
			"byteOffset":7612304,
			"byteLength":540512,
			"target":34962
		},
		{
			"buffer":0,
			"byteOffset":8152816,
			"byteLength":1621536,
			"target":34962
		},
		{
			"buffer":0,
			"byteOffset":9774352,
			"byteLength":540512,
			"target":34962
		},
		{
			"buffer":0,
			"byteOffset":10314864,
			"byteLength":540512,
			"target":34962
		}
	],
	"nodes":[
		{
			"name":"geo1",
			"mesh":0
		}
	],
	"meshes":[
		{
			"primitives":[
				{
					"attributes":{
						"_index":6,
						"_unreal_lightmap_resolution":8,
						"TEXCOORD_0":5,
						"COLOR_0":4,
						"TANGENT":2,
						"POSITION":1,
						"_unreal_face_smoothing_mask":3,
						"_Alpha":9,
						"NORMAL":7
					},
					"indices":0
				}
			],
			"name":"copytopoints1"
		}
	],
	"scenes":[
		{
			"nodes":[0
			]
		}
	],
	"scene":0
}
