{
	"asset":{
		"version":"2.0",
		"generator":"Houdini GLTF 2.0 Exporter"
	},
	"accessors":[
		{
			"bufferView":0,
			"componentType":5125,
			"count":36603,
			"type":"SCALAR",
			"min":[0
			],
			"max":[33781
			]
		},
		{
			"bufferView":1,
			"componentType":5126,
			"count":33782,
			"type":"VEC3",
			"min":[-8.16238117,2.70389462,-7.5006566
			],
			"max":[8.88592911,15.3171539,9.2748642
			]
		},
		{
			"bufferView":2,
			"componentType":5126,
			"count":33782,
			"type":"VEC4",
			"min":[-0.999924302,-0.999846816,-0.999972105,1
			],
			"max":[0.99996984,0.99968493,0.999898374,1
			]
		},
		{
			"bufferView":3,
			"componentType":5125,
			"count":33782,
			"type":"SCALAR",
			"min":[1
			],
			"max":[1
			]
		},
		{
			"bufferView":4,
			"componentType":5126,
			"count":33782,
			"type":"VEC3",
			"min":[0,5.04553536e-05,0
			],
			"max":[1,0.999594212,1
			]
		},
		{
			"bufferView":5,
			"componentType":5126,
			"count":33782,
			"type":"VEC2",
			"min":[0,0
			],
			"max":[0.994237602,0.996373177
			]
		},
		{
			"bufferView":6,
			"componentType":5125,
			"count":33782,
			"type":"SCALAR",
			"min":[1
			],
			"max":[1
			]
		},
		{
			"bufferView":7,
			"componentType":5126,
			"count":33782,
			"type":"VEC3",
			"min":[-0.999852538,-0.99996835,-0.999857903
			],
			"max":[0.999404013,0.998780668,0.999865413
			]
		},
		{
			"bufferView":8,
			"componentType":5125,
			"count":33782,
			"type":"SCALAR",
			"min":[1024
			],
			"max":[1024
			]
		},
		{
			"bufferView":9,
			"componentType":5126,
			"count":33782,
			"type":"SCALAR",
			"min":[0
			],
			"max":[0.965517223
			]
		}
	],
	"buffers":[
		{
			"uri":"leaves_newN_data.bin",
			"byteLength":2713844,
			"name":"main_buffer"
		}
	],
	"bufferViews":[
		{
			"buffer":0,
			"byteLength":146412,
			"target":34963
		},
		{
			"buffer":0,
			"byteOffset":146412,
			"byteLength":405384,
			"target":34962
		},
		{
			"buffer":0,
			"byteOffset":551796,
			"byteLength":540512,
			"target":34962
		},
		{
			"buffer":0,
			"byteOffset":1092308,
			"byteLength":135128,
			"target":34962
		},
		{
			"buffer":0,
			"byteOffset":1227436,
			"byteLength":405384,
			"target":34962
		},
		{
			"buffer":0,
			"byteOffset":1632820,
			"byteLength":270256,
			"target":34962
		},
		{
			"buffer":0,
			"byteOffset":1903076,
			"byteLength":135128,
			"target":34962
		},
		{
			"buffer":0,
			"byteOffset":2038204,
			"byteLength":405384,
			"target":34962
		},
		{
			"buffer":0,
			"byteOffset":2443588,
			"byteLength":135128,
			"target":34962
		},
		{
			"buffer":0,
			"byteOffset":2578716,
			"byteLength":135128,
			"target":34962
		}
	],
	"nodes":[
		{
			"name":"geo1",
			"mesh":0
		}
	],
	"meshes":[
		{
			"primitives":[
				{
					"attributes":{
						"_index":6,
						"_unreal_lightmap_resolution":8,
						"TEXCOORD_0":5,
						"COLOR_0":4,
						"TANGENT":2,
						"POSITION":1,
						"_unreal_face_smoothing_mask":3,
						"_Alpha":9,
						"NORMAL":7
					},
					"indices":0
				}
			],
			"name":"attribvop1"
		}
	],
	"scenes":[
		{
			"nodes":[0
			]
		}
	],
	"scene":0
}
