{
	"asset":{
		"version":"2.0",
		"generator":"Houdini GLTF 2.0 Exporter"
	},
	"accessors":[
		{
			"bufferView":0,
			"componentType":5123,
			"count":29472,
			"type":"SCALAR",
			"min":[0
			],
			"max":[22398
			]
		},
		{
			"bufferView":1,
			"componentType":5126,
			"count":22399,
			"type":"VEC3",
			"min":[-6.58149147,-1.24954736,-5.54915619
			],
			"max":[7.0232029,13.7028589,7.77539778
			]
		},
		{
			"bufferView":2,
			"componentType":5126,
			"count":22399,
			"type":"VEC4",
			"min":[-0.999999821,-0.999972522,-0.999940693,1
			],
			"max":[0.999994993,0.999874532,0.999820352,1
			]
		},
		{
			"bufferView":3,
			"componentType":5126,
			"count":22399,
			"type":"VEC3",
			"min":[0,0,0
			],
			"max":[0,0,0
			]
		},
		{
			"bufferView":4,
			"componentType":5126,
			"count":22399,
			"type":"VEC2",
			"min":[-2.95091772,-10.1882305
			],
			"max":[2.93899465,2.11759996
			]
		},
		{
			"bufferView":5,
			"componentType":5126,
			"count":22399,
			"type":"VEC3",
			"min":[-0.999694526,-0.999968946,-0.999175191
			],
			"max":[0.999839365,0.999993742,0.99996686
			]
		},
		{
			"bufferView":6,
			"componentType":5126,
			"count":22399,
			"type":"SCALAR",
			"min":[0
			],
			"max":[1
			]
		},
		{
			"bufferView":7,
			"componentType":5125,
			"count":22399,
			"type":"SCALAR",
			"min":[0
			],
			"max":[0
			]
		},
		{
			"bufferView":8,
			"componentType":5125,
			"count":22399,
			"type":"SCALAR",
			"min":[1
			],
			"max":[1
			]
		},
		{
			"bufferView":9,
			"componentType":5125,
			"count":22399,
			"type":"SCALAR",
			"min":[1024
			],
			"max":[1024
			]
		}
	],
	"buffers":[
		{
			"uri":"trunk_data.bin",
			"byteLength":1761268,
			"name":"main_buffer"
		}
	],
	"bufferViews":[
		{
			"buffer":0,
			"byteLength":58944,
			"target":34963
		},
		{
			"buffer":0,
			"byteOffset":58944,
			"byteLength":268788,
			"target":34962
		},
		{
			"buffer":0,
			"byteOffset":327732,
			"byteLength":358384,
			"target":34962
		},
		{
			"buffer":0,
			"byteOffset":686116,
			"byteLength":268788,
			"target":34962
		},
		{
			"buffer":0,
			"byteOffset":954904,
			"byteLength":179192,
			"target":34962
		},
		{
			"buffer":0,
			"byteOffset":1134096,
			"byteLength":268788,
			"target":34962
		},
		{
			"buffer":0,
			"byteOffset":1402884,
			"byteLength":89596,
			"target":34962
		},
		{
			"buffer":0,
			"byteOffset":1492480,
			"byteLength":89596,
			"target":34962
		},
		{
			"buffer":0,
			"byteOffset":1582076,
			"byteLength":89596,
			"target":34962
		},
		{
			"buffer":0,
			"byteOffset":1671672,
			"byteLength":89596,
			"target":34962
		}
	],
	"nodes":[
		{
			"name":"geo1",
			"mesh":0
		}
	],
	"meshes":[
		{
			"primitives":[
				{
					"attributes":{
						"_index":7,
						"_unreal_lightmap_resolution":9,
						"TEXCOORD_0":4,
						"COLOR_0":3,
						"TANGENT":2,
						"POSITION":1,
						"_unreal_face_smoothing_mask":8,
						"_Alpha":6,
						"NORMAL":5
					},
					"indices":0
				}
			],
			"name":"trunk"
		}
	],
	"scenes":[
		{
			"nodes":[0
			]
		}
	],
	"scene":0
}
