{
	"asset":{
		"version":"2.0",
		"generator":"Houdini GLTF 2.0 Exporter"
	},
	"accessors":[
		{
			"bufferView":0,
			"componentType":5125,
			"count":117876,
			"type":"SCALAR",
			"min":[0
			],
			"max":[91054
			]
		},
		{
			"bufferView":1,
			"componentType":5126,
			"count":91055,
			"type":"VEC3",
			"min":[-18.2801285,-1.33802652,-17.013195
			],
			"max":[16.6001682,13.4764652,22.8638763
			]
		},
		{
			"bufferView":2,
			"componentType":5126,
			"count":91055,
			"type":"VEC4",
			"min":[-0.999999821,-0.999972522,-0.999940693,1
			],
			"max":[0.999994993,0.999874532,0.999820352,1
			]
		},
		{
			"bufferView":3,
			"componentType":5125,
			"count":91055,
			"type":"SCALAR",
			"min":[1
			],
			"max":[1
			]
		},
		{
			"bufferView":4,
			"componentType":5126,
			"count":91055,
			"type":"VEC3",
			"min":[0,0,0
			],
			"max":[0,0,0
			]
		},
		{
			"bufferView":5,
			"componentType":5126,
			"count":91055,
			"type":"VEC2",
			"min":[-2.95091772,-10.1882305
			],
			"max":[2.93899465,2.11759996
			]
		},
		{
			"bufferView":6,
			"componentType":5125,
			"count":91055,
			"type":"SCALAR",
			"min":[0
			],
			"max":[0
			]
		},
		{
			"bufferView":7,
			"componentType":5126,
			"count":91055,
			"type":"VEC3",
			"min":[-0.999973178,-0.999827325,-0.999958277
			],
			"max":[0.99997741,0.999959648,0.999644935
			]
		},
		{
			"bufferView":8,
			"componentType":5125,
			"count":91055,
			"type":"SCALAR",
			"min":[1024
			],
			"max":[1024
			]
		},
		{
			"bufferView":9,
			"componentType":5126,
			"count":91055,
			"type":"SCALAR",
			"min":[0
			],
			"max":[1
			]
		}
	],
	"buffers":[
		{
			"uri":"trunk_cluster_data.bin",
			"byteLength":7391684,
			"name":"main_buffer"
		}
	],
	"bufferViews":[
		{
			"buffer":0,
			"byteLength":471504,
			"target":34963
		},
		{
			"buffer":0,
			"byteOffset":471504,
			"byteLength":1092660,
			"target":34962
		},
		{
			"buffer":0,
			"byteOffset":1564164,
			"byteLength":1456880,
			"target":34962
		},
		{
			"buffer":0,
			"byteOffset":3021044,
			"byteLength":364220,
			"target":34962
		},
		{
			"buffer":0,
			"byteOffset":3385264,
			"byteLength":1092660,
			"target":34962
		},
		{
			"buffer":0,
			"byteOffset":4477924,
			"byteLength":728440,
			"target":34962
		},
		{
			"buffer":0,
			"byteOffset":5206364,
			"byteLength":364220,
			"target":34962
		},
		{
			"buffer":0,
			"byteOffset":5570584,
			"byteLength":1092660,
			"target":34962
		},
		{
			"buffer":0,
			"byteOffset":6663244,
			"byteLength":364220,
			"target":34962
		},
		{
			"buffer":0,
			"byteOffset":7027464,
			"byteLength":364220,
			"target":34962
		}
	],
	"nodes":[
		{
			"name":"geo1",
			"mesh":0
		}
	],
	"meshes":[
		{
			"primitives":[
				{
					"attributes":{
						"_index":6,
						"_unreal_lightmap_resolution":8,
						"TEXCOORD_0":5,
						"COLOR_0":4,
						"TANGENT":2,
						"POSITION":1,
						"_unreal_face_smoothing_mask":3,
						"_Alpha":9,
						"NORMAL":7
					},
					"indices":0
				}
			],
			"name":"normal1"
		}
	],
	"scenes":[
		{
			"nodes":[0
			]
		}
	],
	"scene":0
}
