{
	"asset":{
		"version":"2.0",
		"generator":"Houdini GLTF 2.0 Exporter"
	},
	"accessors":[
		{
			"bufferView":0,
			"componentType":5125,
			"count":89958,
			"type":"SCALAR",
			"min":[0
			],
			"max":[17070
			]
		},
		{
			"bufferView":1,
			"componentType":5126,
			"count":17071,
			"type":"VEC4",
			"min":[-0.999985635,-0.999847531,-0.99994725,1
			],
			"max":[0.999524355,0.999988377,0.999973834,1
			]
		},
		{
			"bufferView":2,
			"componentType":5126,
			"count":17071,
			"type":"SCALAR",
			"min":[1
			],
			"max":[1
			]
		},
		{
			"bufferView":3,
			"componentType":5126,
			"count":17071,
			"type":"SCALAR",
			"min":[0
			],
			"max":[0
			]
		},
		{
			"bufferView":4,
			"componentType":5126,
			"count":17071,
			"type":"SCALAR",
			"min":[0
			],
			"max":[0
			]
		},
		{
			"bufferView":5,
			"componentType":5126,
			"count":17071,
			"type":"VEC3",
			"min":[-11.0765295,-0.0101695061,-8.60517406
			],
			"max":[10.9030972,11.0571823,14.5573864
			]
		},
		{
			"bufferView":6,
			"componentType":5126,
			"count":17071,
			"type":"SCALAR",
			"min":[0
			],
			"max":[0
			]
		},
		{
			"bufferView":7,
			"componentType":5126,
			"count":17071,
			"type":"SCALAR",
			"min":[1
			],
			"max":[1
			]
		},
		{
			"bufferView":8,
			"componentType":5126,
			"count":17071,
			"type":"SCALAR",
			"min":[1
			],
			"max":[1
			]
		},
		{
			"bufferView":9,
			"componentType":5126,
			"count":17071,
			"type":"SCALAR",
			"min":[0
			],
			"max":[0
			]
		},
		{
			"bufferView":10,
			"componentType":5126,
			"count":17071,
			"type":"SCALAR",
			"min":[0
			],
			"max":[0
			]
		},
		{
			"bufferView":11,
			"componentType":5126,
			"count":17071,
			"type":"SCALAR",
			"min":[0
			],
			"max":[0
			]
		},
		{
			"bufferView":12,
			"componentType":5126,
			"count":17071,
			"type":"VEC3",
			"min":[-0.99992758,-0.999958992,-0.999812663
			],
			"max":[0.999993801,0.999978662,0.999965012
			]
		},
		{
			"bufferView":13,
			"componentType":5126,
			"count":17071,
			"type":"VEC2",
			"min":[0.00171099999,0.00101000071
			],
			"max":[0.999062002,0.99722898
			]
		}
	],
	"buffers":[
		{
			"uri":"skull_data.bin",
			"byteLength":1793796,
			"name":"main_buffer"
		}
	],
	"bufferViews":[
		{
			"buffer":0,
			"byteLength":359832,
			"target":34963
		},
		{
			"buffer":0,
			"byteOffset":359832,
			"byteLength":273136,
			"target":34962
		},
		{
			"buffer":0,
			"byteOffset":632968,
			"byteLength":68284,
			"target":34962
		},
		{
			"buffer":0,
			"byteOffset":701252,
			"byteLength":68284,
			"target":34962
		},
		{
			"buffer":0,
			"byteOffset":769536,
			"byteLength":68284,
			"target":34962
		},
		{
			"buffer":0,
			"byteOffset":837820,
			"byteLength":204852,
			"target":34962
		},
		{
			"buffer":0,
			"byteOffset":1042672,
			"byteLength":68284,
			"target":34962
		},
		{
			"buffer":0,
			"byteOffset":1110956,
			"byteLength":68284,
			"target":34962
		},
		{
			"buffer":0,
			"byteOffset":1179240,
			"byteLength":68284,
			"target":34962
		},
		{
			"buffer":0,
			"byteOffset":1247524,
			"byteLength":68284,
			"target":34962
		},
		{
			"buffer":0,
			"byteOffset":1315808,
			"byteLength":68284,
			"target":34962
		},
		{
			"buffer":0,
			"byteOffset":1384092,
			"byteLength":68284,
			"target":34962
		},
		{
			"buffer":0,
			"byteOffset":1452376,
			"byteLength":204852,
			"target":34962
		},
		{
			"buffer":0,
			"byteOffset":1657228,
			"byteLength":136568,
			"target":34962
		}
	],
	"nodes":[
		{
			"name":"geo1",
			"mesh":0
		}
	],
	"meshes":[
		{
			"primitives":[
				{
					"attributes":{
						"_fbx_translation_2":9,
						"_fbx_translation_1":3,
						"_fbx_rotation_0":10,
						"TEXCOORD_0":13,
						"_fbx_rotation_1":6,
						"POSITION":5,
						"_fbx_scale_1":2,
						"TANGENT":1,
						"_fbx_rotation_2":4,
						"_fbx_translation_0":11,
						"NORMAL":12,
						"_fbx_scale_2":7,
						"_fbx_scale_0":8
					},
					"indices":0,
					"material":0
				}
			],
			"name":"polyframe2"
		}
	],
	"materials":[
		{
			"name":"default_material",
			"pbrMetallicRoughness":{
				"baseColorFactor":[0.75686276,0.75686276,0.75686276,1
				],
				"metallicFactor":0
			}
		}
	],
	"scenes":[
		{
			"nodes":[0
			]
		}
	],
	"scene":0
}
