{
	"asset":{
		"version":"2.0",
		"generator":"Houdini GLTF 2.0 Exporter"
	},
	"accessors":[
		{
			"bufferView":0,
			"componentType":5121,
			"count":54,
			"type":"SCALAR",
			"min":[0
			],
			"max":[15
			]
		},
		{
			"bufferView":1,
			"componentType":5126,
			"count":16,
			"type":"VEC3",
			"min":[-5,0.600000024,-5
			],
			"max":[5,0.600000024,5
			]
		},
		{
			"bufferView":2,
			"componentType":5126,
			"count":16,
			"type":"VEC2",
			"min":[0,0
			],
			"max":[1,1
			]
		},
		{
			"bufferView":3,
			"componentType":5126,
			"count":16,
			"type":"VEC3",
			"min":[0,1,0
			],
			"max":[0,1,0
			]
		},
		{
			"bufferView":4,
			"componentType":5126,
			"count":16,
			"type":"VEC4",
			"min":[0.99999994,0,0,1
			],
			"max":[1,0,0,1
			]
		},
		{
			"bufferView":5,
			"componentType":5121,
			"count":6,
			"type":"SCALAR",
			"min":[0
			],
			"max":[3
			]
		},
		{
			"bufferView":6,
			"componentType":5126,
			"count":4,
			"type":"VEC3",
			"min":[-5,0,-5
			],
			"max":[5,0,5
			]
		},
		{
			"bufferView":7,
			"componentType":5126,
			"count":4,
			"type":"VEC2",
			"min":[0,0
			],
			"max":[1,1
			]
		},
		{
			"bufferView":8,
			"componentType":5126,
			"count":4,
			"type":"VEC3",
			"min":[0,1,0
			],
			"max":[0,1,0
			]
		},
		{
			"bufferView":9,
			"componentType":5126,
			"count":4,
			"type":"VEC4",
			"min":[1,0,0,1
			],
			"max":[1,0,0,1
			]
		}
	],
	"buffers":[
		{
			"uri":"shader_order_data.bin",
			"byteLength":1024,
			"name":"main_buffer"
		}
	],
	"bufferViews":[
		{
			"buffer":0,
			"byteLength":54,
			"target":34963
		},
		{
			"buffer":0,
			"byteOffset":56,
			"byteLength":192,
			"target":34962
		},
		{
			"buffer":0,
			"byteOffset":248,
			"byteLength":128,
			"target":34962
		},
		{
			"buffer":0,
			"byteOffset":376,
			"byteLength":192,
			"target":34962
		},
		{
			"buffer":0,
			"byteOffset":568,
			"byteLength":256,
			"target":34962
		},
		{
			"buffer":0,
			"byteOffset":824,
			"byteLength":6,
			"target":34963
		},
		{
			"buffer":0,
			"byteOffset":832,
			"byteLength":48,
			"target":34962
		},
		{
			"buffer":0,
			"byteOffset":880,
			"byteLength":32,
			"target":34962
		},
		{
			"buffer":0,
			"byteOffset":912,
			"byteLength":48,
			"target":34962
		},
		{
			"buffer":0,
			"byteOffset":960,
			"byteLength":64,
			"target":34962
		}
	],
	"nodes":[
		{
			"name":"geo1",
			"mesh":0
		}
	],
	"meshes":[
		{
			"primitives":[
				{
					"attributes":{
						"TANGENT":4,
						"TEXCOORD_0":2,
						"POSITION":1,
						"NORMAL":3
					},
					"indices":0
				},
				{
					"attributes":{
						"TANGENT":9,
						"TEXCOORD_0":7,
						"POSITION":6,
						"NORMAL":8
					},
					"indices":5
				}
			],
			"name":"merge5"
		}
	],
	"scenes":[
		{
			"nodes":[0
			]
		}
	],
	"scene":0
}
