{
	"asset":{
		"version":"2.0",
		"generator":"Houdini GLTF 2.0 Exporter"
	},
	"accessors":[
		{
			"bufferView":0,
			"componentType":5125,
			"count":235224,
			"type":"SCALAR",
			"min":[0
			],
			"max":[39600
			]
		},
		{
			"bufferView":1,
			"componentType":5126,
			"count":39601,
			"type":"VEC3",
			"min":[-200,-0.999657571,-200
			],
			"max":[199.999969,1.11000001,199.999969
			]
		},
		{
			"bufferView":2,
			"componentType":5126,
			"count":39601,
			"type":"VEC4",
			"min":[0.917870283,-0.39558059,-0.0471953265,1
			],
			"max":[1.00000024,0.38392657,0.0454558916,1
			]
		},
		{
			"bufferView":3,
			"componentType":5126,
			"count":39601,
			"type":"VEC3",
			"min":[0,0,0
			],
			"max":[0.995060802,1,0.412556618
			]
		},
		{
			"bufferView":4,
			"componentType":5126,
			"count":39601,
			"type":"VEC3",
			"min":[-0.383908659,0.89910531,-0.381016701
			],
			"max":[0.384559005,0.999999702,0.433673233
			]
		},
		{
			"bufferView":5,
			"componentType":5126,
			"count":39601,
			"type":"VEC2",
			"min":[-0.5,-0.499999762
			],
			"max":[1.49999976,1.5
			]
		}
	],
	"buffers":[
		{
			"uri":"ground_data.bin",
			"byteLength":3316956,
			"name":"main_buffer"
		}
	],
	"bufferViews":[
		{
			"buffer":0,
			"byteLength":940896,
			"target":34963
		},
		{
			"buffer":0,
			"byteOffset":940896,
			"byteLength":475212,
			"target":34962
		},
		{
			"buffer":0,
			"byteOffset":1416108,
			"byteLength":633616,
			"target":34962
		},
		{
			"buffer":0,
			"byteOffset":2049724,
			"byteLength":475212,
			"target":34962
		},
		{
			"buffer":0,
			"byteOffset":2524936,
			"byteLength":475212,
			"target":34962
		},
		{
			"buffer":0,
			"byteOffset":3000148,
			"byteLength":316808,
			"target":34962
		}
	],
	"nodes":[
		{
			"name":"geo1",
			"mesh":0
		}
	],
	"meshes":[
		{
			"primitives":[
				{
					"attributes":{
						"TEXCOORD_0":5,
						"COLOR_0":3,
						"TANGENT":2,
						"POSITION":1,
						"NORMAL":4
					},
					"indices":0
				}
			],
			"name":"polyframe4"
		}
	],
	"scenes":[
		{
			"nodes":[0
			]
		}
	],
	"scene":0
}
