{
	"asset":{
		"version":"2.0",
		"generator":"Houdini GLTF 2.0 Exporter"
	},
	"accessors":[
		{
			"bufferView":0,
			"componentType":5123,
			"count":3192,
			"type":"SCALAR",
			"min":[0
			],
			"max":[869
			]
		},
		{
			"bufferView":1,
			"componentType":5126,
			"count":870,
			"type":"VEC3",
			"min":[-32.2954636,-1.45573485,-22.8176689
			],
			"max":[24.6491261,21.6813221,24.8077927
			]
		},
		{
			"bufferView":2,
			"componentType":5126,
			"count":870,
			"type":"VEC2",
			"min":[-0.00964868814,0.00621384382
			],
			"max":[1.00335824,0.986837089
			]
		},
		{
			"bufferView":3,
			"componentType":5126,
			"count":870,
			"type":"VEC4",
			"min":[-0.999441683,-0.646981239,-0.999163806,1
			],
			"max":[0.990611553,0.604768455,0.995067775,1
			]
		},
		{
			"bufferView":4,
			"componentType":5126,
			"count":870,
			"type":"VEC3",
			"min":[-0.932666421,0.126105979,-0.941529691
			],
			"max":[0.92176038,0.999667645,0.94888103
			]
		}
	],
	"buffers":[
		{
			"uri":"var0_data.bin",
			"byteLength":48144,
			"name":"main_buffer"
		}
	],
	"bufferViews":[
		{
			"buffer":0,
			"byteLength":6384,
			"target":34963
		},
		{
			"buffer":0,
			"byteOffset":6384,
			"byteLength":10440,
			"target":34962
		},
		{
			"buffer":0,
			"byteOffset":16824,
			"byteLength":6960,
			"target":34962
		},
		{
			"buffer":0,
			"byteOffset":23784,
			"byteLength":13920,
			"target":34962
		},
		{
			"buffer":0,
			"byteOffset":37704,
			"byteLength":10440,
			"target":34962
		}
	],
	"nodes":[
		{
			"name":"geo1",
			"mesh":0
		}
	],
	"meshes":[
		{
			"primitives":[
				{
					"attributes":{
						"TANGENT":3,
						"TEXCOORD_0":2,
						"POSITION":1,
						"NORMAL":4
					},
					"indices":0
				}
			],
			"name":"polyframe3"
		}
	],
	"scenes":[
		{
			"nodes":[0
			]
		}
	],
	"scene":0
}
